# xmcd
# 
# Track frame offsets:
#     150
#     15356
#     27416
#     46084
#     60657
#     75222
#     89573
#     108592
#     123606
#     136824
#     151520
#     165843
#     178901
# 
# Disc length: 2571
# 
# Revision: 2
# Processed by: cddbd v1.5.2PL0 Copyright (c) Steve Scherf et al.
# Submitted via: BonkEnc v1.0.8
# 
DISCID=910a090d
DTITLE=Gino e Geno - Pode Chamar Nóis
DYEAR=2009
DGENRE=Sertanejo
TTITLE0=Tô Voltando
TTITLE1=Com Dinheiro é Mole
TTITLE2=Só Dou Amor
TTITLE3=Pode Chamar Nóis
TTITLE4=Enche a Cara e Chora
TTITLE5=Outro Porre
TTITLE6=Sina
TTITLE7=Tá no Papo
TTITLE8=Quem te Ligou
TTITLE9=Aí é Só Bebendo
TTITLE10=Tá na Mão
TTITLE11=Fica Nervoso Não
TTITLE12=Cachaceiro
EXTD=YEAR: 2009
EXTT0=
EXTT1=
EXTT2=
EXTT3=
EXTT4=
EXTT5=
EXTT6=
EXTT7=
EXTT8=
EXTT9=
EXTT10=
EXTT11=
EXTT12=
PLAYORDER=
